# Blender 4.2.3 LTS
# www.blender.org
mtllib plane.mtl
o Cube.001
v 1.576926 -0.085482 0.030943
v 1.329692 0.016963 0.102713
v 1.361541 -0.074434 0.128162
v 0.307862 -0.073695 0.424350
v 0.190156 0.138576 0.427659
v 0.058236 0.117585 0.612866
v 0.075105 -0.021534 0.526644
v 1.269668 -0.162354 0.032049
v 0.762410 0.057833 0.249985
v 0.827508 0.079336 0.130166
v 0.785233 0.190135 0.038429
v 0.679008 0.178739 0.038958
v -0.266989 0.050151 1.440986
v -0.298361 0.089406 0.851520
v -0.666020 0.083849 0.865503
v -0.611764 0.057917 1.433504
v 0.128857 0.180255 0.042299
v 0.142054 -0.192597 0.038570
v -0.316896 -0.021275 0.388394
v -0.339566 -0.157173 0.041828
v -0.329920 0.178989 0.045060
v -0.308243 0.123766 0.561493
v 0.688047 -0.199051 0.035203
v 0.892997 -0.145542 0.227827
v 1.274957 0.059847 0.034191
v 1.033067 0.138988 0.106692
v 1.003368 -0.048529 0.158695
v 0.948264 -0.178403 0.033834
v 1.023803 0.188657 0.036971
v 0.863915 -0.073426 0.160895
v 0.728659 -0.181445 0.035132
v -0.613279 0.041942 1.433915
v -0.763276 0.096429 0.838886
v -0.770141 0.065007 0.839262
v -0.695981 -0.002450 0.398385
v -0.728556 -0.142384 0.044325
v -0.267693 0.031099 1.441726
v -0.896402 -0.096340 0.045791
v -0.879377 0.076568 0.407866
v -1.093577 0.066201 0.731529
v -1.055148 -0.026160 0.241569
v -1.127457 -0.067253 0.047473
v -1.093018 -0.012298 0.203870
v -1.286531 0.021414 0.163046
v -1.303687 -0.005764 0.049139
v -0.875649 0.150238 0.501115
v -0.872422 0.186664 0.364492
v -1.004426 0.182984 0.351292
v -0.999570 0.211028 0.338761
v -0.863090 0.202821 0.288464
v -0.885166 0.170822 0.048339
v -1.122781 0.164909 0.049717
v -1.096569 0.157212 0.243381
v -1.096605 0.094958 0.732299
v -1.279549 0.105505 0.160147
v -1.296570 0.126940 0.050396
v -1.377054 0.097250 0.311794
v -1.259548 0.081688 0.743615
v -1.262445 0.068432 0.751061
v -0.302099 0.017058 0.853489
v -0.050446 0.048547 0.911591
v -0.659558 0.025737 0.858701
v -0.033535 0.084258 0.877044
v -0.692262 0.126297 0.556301
v -1.374563 0.066801 0.312602
v -1.095321 0.066297 0.200584
v -0.719948 0.189433 0.047522
v -0.725554 0.182843 0.298639
v -0.678594 0.196146 0.334033
v -0.726989 0.192274 0.368113
v -0.976974 0.536192 0.438040
v -1.093853 0.541860 0.440064
v -0.842449 0.468291 0.423929
v 1.360384 -0.072557 -0.063431
v 1.328854 0.018318 -0.035813
v 0.303200 -0.066144 -0.346787
v 0.069228 -0.012015 -0.445218
v 0.051337 0.128761 -0.528490
v 0.185489 0.146138 -0.344515
v 0.759838 0.061999 -0.175386
v 0.826382 0.081158 -0.055967
v -0.283886 0.077518 -1.353776
v -0.628545 0.085094 -1.341976
v -0.675927 0.099894 -0.772961
v -0.308123 0.105217 -0.763320
v -0.321072 -0.014510 -0.302261
v -0.314495 0.133891 -0.472578
v 0.890658 -0.141756 -0.158797
v 1.001870 -0.046102 -0.089118
v 1.032217 0.140363 -0.033815
v 0.862397 -0.070968 -0.090119
v -0.630066 0.069132 -1.342682
v -0.779726 0.080528 -0.745838
v -0.772852 0.111940 -0.744929
v -0.700247 0.004461 -0.307296
v -0.284602 0.058486 -1.354880
v -1.057495 -0.022358 -0.146643
v -1.101836 0.079575 -0.634200
v -0.883734 0.083627 -0.313008
v -1.287905 0.023641 -0.064412
v -1.094906 -0.009241 -0.108224
v -0.881124 0.159109 -0.404835
v -1.104867 0.108341 -0.634371
v -1.098913 0.161009 -0.144362
v -0.865990 0.207520 -0.191365
v -1.003069 0.216695 -0.239835
v -1.008079 0.188901 -0.252855
v -0.876244 0.192854 -0.267573
v -1.280881 0.107662 -0.059951
v -1.267938 0.095275 -0.643973
v -1.380212 0.102367 -0.210541
v -1.270927 0.082168 -0.651642
v -0.311893 0.032922 -0.766658
v -0.060959 0.065573 -0.827173
v -0.669389 0.041662 -0.767379
v -0.043628 0.100604 -0.792142
v -0.698422 0.136275 -0.462692
v -1.377734 0.071938 -0.211973
v -1.097160 0.069274 -0.103372
v -0.730864 0.198551 -0.272843
v -0.682060 0.201760 -0.239281
v -0.728590 0.187760 -0.203589
v -1.098531 0.549435 -0.333494
v -0.981636 0.543741 -0.332995
v -0.846957 0.475595 -0.321843
vn 0.3977 0.3721 0.8387
vn 0.6207 0.0382 0.7831
vn 0.2051 -0.8119 0.5466
vn 0.2185 0.8166 0.5343
vn 0.0111 0.9979 0.0638
vn 0.0125 0.9978 0.0658
vn 0.0036 0.9984 0.0560
vn 0.1089 0.9654 0.2368
vn -0.0862 -0.9381 0.3355
vn -0.0011 0.9942 0.1079
vn -0.0142 -0.9557 0.2940
vn 0.3208 0.1342 0.9376
vn 0.4258 0.8800 0.2106
vn 0.1107 0.2667 0.9574
vn 0.0226 -0.7195 0.6941
vn 0.3887 0.8387 0.3815
vn 0.0143 0.2365 0.9715
vn 0.0646 -0.7478 0.6607
vn -0.9513 0.1724 0.2556
vn -0.0347 -0.9290 0.3685
vn -0.0212 0.0342 0.9992
vn 0.1796 -0.9410 0.2868
vn -0.2964 -0.8675 0.3995
vn 0.1191 0.9923 0.0339
vn -0.3106 -0.8894 0.3353
vn -0.1478 0.9873 0.0589
vn 0.7200 -0.4720 0.5088
vn -0.9867 0.0653 0.1491
vn -0.1443 0.9843 0.1016
vn 0.0863 0.1566 0.9839
vn 0.8400 0.4026 0.3638
vn 0.7105 -0.4774 -0.5170
vn -0.0517 0.7000 0.7122
vn 0.1204 -0.9926 0.0167
vn -0.3426 -0.9379 0.0540
vn -0.0278 -0.9992 0.0279
vn 0.0131 0.9978 0.0658
vn 0.0914 0.9876 0.1274
vn 0.9242 -0.0536 0.3782
vn -0.0025 0.9919 0.1273
vn -0.0022 0.9919 0.1274
vn 0.0030 0.9925 0.1220
vn -0.9549 -0.1366 0.2635
vn -0.9651 0.0572 0.2556
vn -0.2284 -0.0423 -0.9726
vn -0.8450 -0.1381 0.5166
vn -0.2022 0.0430 0.9784
vn -0.3714 0.8181 0.4391
vn -0.1700 -0.9790 0.1126
vn -0.0357 -0.9966 0.0736
vn 0.0030 0.9926 0.1217
vn 0.9423 -0.0951 0.3209
vn 0.0634 0.9916 0.1130
vn -0.0006 0.9537 0.3007
vn 0.0092 -0.9918 0.1277
vn -0.3744 -0.9239 0.0784
vn -0.0455 -0.2349 0.9709
vn 0.0061 0.9986 -0.0519
vn -0.1773 0.2986 -0.9378
vn 0.4243 0.5040 -0.7523
vn -0.8513 -0.0840 -0.5179
vn 0.1301 0.4426 -0.8872
vn 0.5703 0.0731 0.8182
vn -0.0091 -0.2056 0.9786
vn 0.3875 0.3885 -0.8360
vn 0.6112 0.0536 -0.7897
vn 0.1984 -0.8010 -0.5649
vn 0.2121 0.8269 -0.5208
vn 0.0104 0.9990 -0.0444
vn 0.0031 0.9993 -0.0364
vn 0.0116 0.9989 -0.0465
vn 0.1062 0.9699 -0.2191
vn -0.0903 -0.9314 -0.3527
vn -0.0023 0.9961 -0.0884
vn -0.0179 -0.9498 -0.3124
vn 0.3095 0.1526 -0.9386
vn 0.4233 0.8840 -0.1985
vn 0.0992 0.2854 -0.9533
vn 0.0141 -0.7058 -0.7083
vn 0.3842 0.8460 -0.3697
vn 0.0026 0.2555 -0.9668
vn 0.0565 -0.7347 -0.6760
vn -0.9543 0.1773 -0.2406
vn -0.0392 -0.9216 -0.3861
vn -0.0333 0.0537 -0.9980
vn 0.1760 -0.9352 -0.3073
vn -0.3013 -0.8595 -0.4128
vn 0.1188 0.9928 -0.0159
vn -0.3148 -0.8827 -0.3488
vn -0.1484 0.9882 -0.0378
vn 0.7137 -0.4619 -0.5266
vn -0.9884 0.0681 -0.1359
vn -0.1454 0.9861 -0.0806
vn 0.0744 0.1758 -0.9816
vn 0.8355 0.4098 -0.3660
vn 0.7166 -0.4874 0.4989
vn -0.0602 0.7138 -0.6977
vn 0.1200 -0.9921 -0.0375
vn -0.3433 -0.9368 -0.0682
vn -0.0283 -0.9985 -0.0471
vn 0.0124 0.9988 -0.0463
vn 0.0900 0.9900 -0.1091
vn 0.9195 -0.0461 -0.3903
vn -0.0039 0.9942 -0.1078
vn 0.0012 0.9948 -0.1022
vn -0.0041 0.9942 -0.1074
vn -0.9581 -0.1315 -0.2546
vn -0.9681 0.0621 -0.2427
vn -0.2166 -0.0614 0.9743
vn -0.8512 -0.1281 -0.5090
vn -0.2140 0.0621 -0.9749
vn -0.3766 0.8265 -0.4185
vn -0.1714 -0.9766 -0.1297
vn -0.0367 -0.9950 -0.0927
vn 0.0016 0.9948 -0.1022
vn 0.9384 -0.0887 -0.3340
vn 0.0621 0.9936 -0.0943
vn -0.0041 0.9594 -0.2820
vn 0.0075 -0.9891 -0.1472
vn -0.3754 -0.9223 -0.0919
vn -0.0572 -0.2159 -0.9747
vn 0.0069 0.9974 0.0713
vn -0.1659 0.2802 0.9455
vn 0.4334 0.4892 0.7569
vn -0.8450 -0.0943 0.5264
vn 0.1409 0.4252 0.8941
vn 0.5604 0.0892 -0.8234
vn -0.0209 -0.1864 -0.9823
vt 0.625000 0.375000
vt 0.625000 0.455059
vt 0.460368 0.457316
vt 0.375000 0.625000
vt 0.625000 0.625000
vt 0.625000 0.644107
vt 0.375000 0.645466
vt 0.250000 0.500000
vt 0.332316 0.500000
vt 0.250000 0.585087
vt 0.625000 0.500000
vt 0.639405 0.500000
vt 0.750000 0.618134
vt 0.750000 0.637631
vt 0.625000 0.750000
vt 0.685082 0.750000
vt 0.678329 0.750000
vt 0.750000 0.693815
vt 0.250000 0.693838
vt 0.286144 0.750000
vt 0.250000 0.750000
vt 0.750000 0.750000
vt 0.705201 0.750000
vt 0.250000 0.637676
vt 0.375000 0.500000
vt 0.750000 0.587988
vt 0.669941 0.500000
vt 0.750000 0.500000
vt 0.625000 0.473100
vt 0.417186 0.478907
vt 0.353907 0.500000
vt 0.250000 0.611771
vt 0.750000 0.607322
vt 0.651900 0.500000
vt 0.625000 0.485595
vt 0.395681 0.489660
vt 0.364660 0.500000
vt 0.250000 0.623669
vt 0.375000 0.750000
vt 0.288211 0.750000
vt 0.279177 0.750000
vt 0.648054 0.750000
vt 0.683830 0.750000
vt 0.706345 0.750000
vt 0.671221 0.750000
vt 0.720479 0.750000
vt 0.625000 0.875000
vt 0.375000 0.875000
vt 0.316899 0.750000
vt 0.375000 0.677811
vt 0.318115 0.750000
vt 0.625000 0.670758
vt 0.704494 0.750000
vt 0.721932 0.750000
vt 0.715016 0.750000
vt 0.715584 0.750000
s 1
usemtl None
f 1/1/1 2/2/1 3/3/1
f 4/4/2 5/5/2 6/6/2 7/7/2
f 1/8/3 3/9/3 8/10/3
f 9/11/4 10/12/4 11/13/4 12/14/4
f 13/15/5 14/16/6 15/17/7 16/15/7
f 12/14/8 17/18/8 5/5/8 9/11/8
f 18/19/9 4/4/9 7/7/9 19/20/9 20/21/9
f 17/18/10 21/22/10 22/23/10 6/6/10 5/5/10
f 23/24/11 24/25/11 4/4/11 18/19/11
f 24/25/12 9/11/12 5/5/12 4/4/12
f 25/26/13 2/27/13 1/28/13
f 3/3/14 2/2/14 26/29/14 27/30/14
f 8/10/15 3/9/15 27/31/15 28/32/15
f 29/33/16 26/34/16 2/27/16 25/26/16
f 27/30/17 26/29/17 10/35/17 30/36/17
f 28/32/18 27/31/18 30/37/18 31/38/18
f 32/39/19 16/15/19 33/15/19 34/39/19
f 20/21/20 19/20/20 35/40/20 36/21/20
f 37/39/21 13/15/21 16/15/21 32/39/21
f 38/21/22 39/39/22 40/39/22 41/41/22 42/21/22
f 36/21/23 35/40/23 39/39/23 38/21/23
f 16/15/24 15/17/24 33/15/24
f 42/21/25 41/39/25 43/39/25 44/39/25 45/21/25
f 46/15/26 47/42/26 48/43/26 49/44/26 50/45/26 51/22/26 52/22/26 53/46/26 54/15/26
f 39/39/27 46/15/27 54/15/27 40/39/27
f 44/39/28 55/15/28 56/47/28 45/48/28
f 54/15/29 53/15/29 57/15/29 58/15/29
f 40/39/30 54/15/30 58/15/30 59/39/30
f 30/36/31 10/35/31 9/11/31 24/25/31
f 31/38/32 30/37/32 24/25/32 23/24/32
f 11/13/33 10/12/33 26/34/33 29/33/33
f 60/49/34 61/50/34 37/39/34
f 34/39/35 62/51/35 32/39/35
f 62/51/36 60/49/36 37/39/36 32/39/36
f 63/52/37 14/16/6 13/15/5
f 33/15/38 15/17/38 64/53/38 46/15/38
f 61/50/39 63/52/39 13/15/39 37/39/39
f 15/17/40 14/16/41 22/23/42 64/53/40
f 34/39/43 33/15/43 46/15/43 39/39/43
f 59/39/44 58/15/44 57/15/44 65/39/44
f 65/39/45 57/15/45 53/15/45 41/39/45
f 41/39/46 53/15/46 66/15/46 43/39/46
f 43/39/47 66/15/47 55/15/47 44/39/47
f 53/46/48 52/22/48 56/22/48 55/15/48 66/15/48
f 41/41/49 40/39/49 59/39/49 65/39/49
f 35/40/50 19/20/50 60/49/50 62/51/50
f 6/6/51 22/23/42 14/16/41 63/52/51
f 7/7/52 6/6/52 63/52/52 61/50/52
f 64/53/53 22/23/53 21/22/53 67/22/53 68/54/53 69/55/53 70/56/53
f 46/15/54 64/53/54 70/56/54 47/42/54
f 19/20/55 7/7/55 61/50/55 60/49/55
f 39/39/56 35/40/56 62/51/56 34/39/56
f 48/43/57 47/42/57 71/42/57 72/43/57
f 50/45/58 68/54/58 67/22/58 51/22/58
f 50/45/59 49/44/59 72/44/59 71/45/59
f 69/55/60 68/54/60 73/55/60
f 49/44/61 48/43/61 72/44/61
f 68/54/62 50/45/62 71/45/62 73/54/62
f 70/56/63 69/55/63 73/56/63
f 70/56/64 73/56/64 71/42/64 47/42/64
f 1/1/65 74/3/65 75/2/65
f 76/4/66 77/7/66 78/6/66 79/5/66
f 1/8/67 8/10/67 74/9/67
f 80/11/68 12/14/68 11/13/68 81/12/68
f 82/15/69 83/15/70 84/17/70 85/16/71
f 12/14/72 80/11/72 79/5/72 17/18/72
f 18/19/73 20/21/73 86/20/73 77/7/73 76/4/73
f 17/18/74 79/5/74 78/6/74 87/23/74 21/22/74
f 23/24/75 18/19/75 76/4/75 88/25/75
f 88/25/76 76/4/76 79/5/76 80/11/76
f 25/26/77 1/28/77 75/27/77
f 74/3/78 89/30/78 90/29/78 75/2/78
f 8/10/79 28/32/79 89/31/79 74/9/79
f 29/33/80 25/26/80 75/27/80 90/34/80
f 89/30/81 91/36/81 81/35/81 90/29/81
f 28/32/82 31/38/82 91/37/82 89/31/82
f 92/39/83 93/39/83 94/15/83 83/15/83
f 20/21/84 36/21/84 95/40/84 86/20/84
f 96/39/85 92/39/85 83/15/85 82/15/85
f 38/21/86 42/21/86 97/41/86 98/39/86 99/39/86
f 36/21/87 38/21/87 99/39/87 95/40/87
f 83/15/88 94/15/88 84/17/88
f 42/21/89 45/21/89 100/39/89 101/39/89 97/39/89
f 102/15/90 103/15/90 104/46/90 52/22/90 51/22/90 105/45/90 106/44/90 107/43/90 108/42/90
f 99/39/91 98/39/91 103/15/91 102/15/91
f 100/39/92 45/48/92 56/47/92 109/15/92
f 103/15/93 110/15/93 111/15/93 104/15/93
f 98/39/94 112/39/94 110/15/94 103/15/94
f 91/36/95 88/25/95 80/11/95 81/35/95
f 31/38/96 23/24/96 88/25/96 91/37/96
f 11/13/97 29/33/97 90/34/97 81/12/97
f 113/49/98 96/39/98 114/50/98
f 93/39/99 92/39/99 115/51/99
f 115/51/100 92/39/100 96/39/100 113/49/100
f 116/52/101 82/15/69 85/16/71
f 94/15/102 102/15/102 117/53/102 84/17/102
f 114/50/103 96/39/103 82/15/103 116/52/103
f 84/17/104 117/53/104 87/23/105 85/16/106
f 93/39/107 99/39/107 102/15/107 94/15/107
f 112/39/108 118/39/108 111/15/108 110/15/108
f 118/39/109 97/39/109 104/15/109 111/15/109
f 97/39/110 101/39/110 119/15/110 104/15/110
f 101/39/111 100/39/111 109/15/111 119/15/111
f 104/46/112 119/15/112 109/15/112 56/22/112 52/22/112
f 97/41/113 118/39/113 112/39/113 98/39/113
f 95/40/114 115/51/114 113/49/114 86/20/114
f 78/6/115 116/52/115 85/16/106 87/23/105
f 77/7/116 114/50/116 116/52/116 78/6/116
f 117/53/117 120/56/117 121/55/117 122/54/117 67/22/117 21/22/117 87/23/117
f 102/15/118 108/42/118 120/56/118 117/53/118
f 86/20/119 113/49/119 114/50/119 77/7/119
f 99/39/120 93/39/120 115/51/120 95/40/120
f 107/43/121 123/43/121 124/42/121 108/42/121
f 105/45/122 51/22/122 67/22/122 122/54/122
f 105/45/123 124/45/123 123/44/123 106/44/123
f 121/55/124 125/55/124 122/54/124
f 106/44/125 123/44/125 107/43/125
f 122/54/126 125/54/126 124/45/126 105/45/126
f 120/56/127 125/56/127 121/55/127
f 120/56/128 108/42/128 124/42/128 125/56/128
